 <svg  version="1.0" xmlns="http://www.w3.org/2000/svg"  width="900.000000pt" height="867.000000pt" viewBox="0 0 900.000000 867.000000"  preserveAspectRatio="xMidYMid meet">  <g transform="translate(0.000000,867.000000) scale(0.100000,-0.100000)" fill="#2956ae" stroke="none"> <path d="M820 8583 c-215 -40 -394 -134 -525 -274 -141 -150 -221 -309 -259 -514 -16 -83 -17 -346 -14 -3530 3 -2791 6 -3448 17 -3485 39 -136 54 -181 62 -186 5 -3 9 -12 9 -19 0 -8 22 -52 49 -98 52 -87 159 -206 248 -275 70 -54 243 -138 334 -162 73 -19 121 -20 3729 -20 3616 0 3656 1 3730 20 110 30 284 121 368 194 213 184 319 392 342 673 14 170 13 6635 -1 6798 -20 237 -92 407 -250 585 -99 113 -261 219 -394 258 -191 56 63 52 -3810 51 -3039 -1 -3571 -3 -3635 -16z m1960 -1083 c263 -55 447 -174 627 -405 48 -62 90 -152 139 -295 27 -79 27 -388 1 -470 -52 -159 -99 -246 -189 -355 -215 -261 -510 -383 -854 -354 -392 33 -738 315 -845 689 -30 106 -38 326 -15 438 77 381 388 680 781 751 33 6 71 13 85 15 40 7 210 -2 270 -14z m1840 -1 c117 -16 261 -52 355 -87 51 -19 105 -45 111 -53 6 -10 -124 -265 -142 -280 -12 -10 -32 -6 -107 18 -310 103 -532 115 -658 37 -82 -51 -105 -155 -51 -230 45 -61 128 -99 322 -149 280 -71 390 -112 514 -193 178 -117 242 -331 169 -567 -56 -177 -226 -309 -467 -361 -99 -22 -387 -22 -526 0 -162 26 -421 121 -436 160 -6 16 102 256 123 273 14 11 27 7 191 -63 18 -8 42 -14 53 -14 11 0 30 -5 42 -12 27 -14 125 -26 280 -34 168 -9 264 13 330 75 59 54 73 138 34 206 -37 65 -121 104 -352 162 -399 100 -559 190 -641 359 -31 65 -36 85 -41 176 -4 78 -2 119 11 168 63 246 247 380 581 424 43 6 217 -3 305 -15z m955 -66 c25 -32 72 -96 105 -143 68 -98 400 -563 520 -727 45 -62 87 -113 94 -113 6 0 34 32 61 70 176 248 460 644 601 838 l97 132 76 0 c42 0 83 -5 91 -10 13 -8 15 -122 18 -906 2 -831 1 -898 -15 -916 -15 -17 -31 -18 -187 -16 l-171 3 -5 490 c-3 270 -6 492 -8 494 -6 10 -40 -33 -119 -148 -48 -69 -103 -148 -123 -176 -20 -27 -70 -97 -110 -155 -40 -58 -97 -137 -127 -177 -29 -40 -53 -77 -53 -83 0 -5 -9 -10 -19 -10 -22 0 -93 94 -414 548 -71 100 -135 182 -143 182 -12 0 -14 -71 -14 -475 0 -459 -1 -475 -19 -485 -26 -13 -316 -13 -342 0 -19 10 -19 31 -19 913 0 689 3 906 12 915 7 7 43 12 90 12 l78 0 45 -57z m-374 -3175 c75 -20 150 -43 167 -52 17 -9 36 -16 42 -16 14 0 193 -87 255 -124 99 -59 281 -202 364 -286 256 -260 412 -573 473 -950 16 -98 16 -351 -1 -465 -12 -90 -63 -300 -80 -333 -5 -9 -17 -37 -26 -62 -63 -166 -206 -389 -343 -534 -192 -203 -415 -350 -675 -447 -192 -71 -366 -100 -612 -100 -305 -1 -520 44 -774 163 -233 108 -471 299 -629 503 -25 33 -60 74 -78 90 -18 17 -126 136 -240 265 -115 129 -264 297 -332 374 -147 164 -166 200 -166 312 -1 133 -32 93 676 883 42 47 103 118 135 156 244 297 580 522 913 610 195 52 217 54 515 51 l280 -2 136 -36z"/> <path d="M2465 7141 c-113 -29 -191 -75 -277 -160 -93 -93 -141 -187 -165 -319 -31 -179 26 -373 149 -503 250 -263 644 -253 876 24 155 183 179 462 59 676 -41 73 -158 190 -227 226 -132 68 -289 90 -415 56z"/> <path d="M4600 3744 c-63 -7 -137 -19 -165 -27 -166 -48 -206 -63 -275 -107 -254 -157 -479 -431 -547 -665 -52 -180 -66 -377 -39 -531 51 -292 186 -519 421 -709 189 -152 389 -232 638 -256 110 -11 149 -10 270 4 78 9 176 25 217 37 83 23 272 115 336 164 248 189 375 358 447 597 127 423 23 841 -287 1153 -73 73 -190 165 -271 214 -99 58 -302 116 -462 131 -139 13 -131 13 -283 -5z"/> </g> </svg> 